# AST/ASF file generated using VICON BodyLanguage
# -----------------------------------------------
:version 1.10
:name VICON
:units
  mass 1.0
  length 0.45
  angle deg
:documentation
   .ast/.asf automatically generated from VICON data using
   VICON BodyBuilder and BodyLanguage model FoxedUp or BRILLIANT.MOD
:root
   order TX TY TZ RX RY RZ
   axis XYZ
   position 0 0 0  
   orientation 0 0 0 
:bonedata
  begin
     id 1 
     name lhipjoint
     direction 0.693937 -0.600361 0.397515 
     length 2.37164 
     axis 0 0 0  XYZ
  end
  begin
     id 2 
     name lfemur
     direction 0.34202 -0.939693 0  
     length 6.18497  
     axis 0 0 20  XYZ
    dof rx ry rz
    limits (-160.0 20.0)
           (-70.0 70.0)
           (-60.0 70.0)
  end
  begin
     id 3 
     name ltibia
     direction 0.34202 -0.939693 0   
     length 6.91601   
     axis 0 0 20   XYZ
    dof rx
    limits (-10.0 170.0)
  end
  begin
     id 4 
     name lfoot
     direction 0.0978718 -0.2689 0.958182   
     length 1.81453   
     axis -90 7.62852e-016 20   XYZ
    dof rx rz
    limits (-45.0 90.0)
           (-70.0 20.0)
  end
  begin
     id 5 
     name ltoes
     direction 1.53569e-011 -4.21951e-011 1   
     length 0.912052   
     axis -90 7.62852e-016 20   XYZ
    dof rx
    limits (-90.0 20.0)
  end
  begin
     id 6 
     name rhipjoint
     direction -0.643996 -0.637876 0.422354   
     length 2.23216  
     axis 0 0 0  XYZ 
  end
  begin
     id 7 
     name rfemur
     direction -0.34202 -0.939693 0   
     length 6.15404   
     axis 0 0 -20   XYZ
    dof rx ry rz
    limits (-160.0 20.0)
           (-70.0 70.0)
           (-70.0 60.0)
  end
  begin
     id 8 
     name rtibia
     direction -0.34202 -0.939693 0   
     length 6.86744   
     axis 0 0 -20   XYZ
    dof rx
    limits (-10.0 170.0)
 end
 begin
     id 9 
     name rfoot
     direction -0.118701 -0.326127 0.937844   
     length 1.9243  
     axis -90 -7.62852e-016 -20   XYZ
    dof rx rz
    limits (-45.0 90.0)
           (-20.0 70.0)
  end
  begin
     id 10 
     name rtoes
     direction -1.5356e-011 -4.2181e-011 1   
     length 0.958865   
     axis -90 -7.62852e-016 -20   XYZ
    dof rx
    limits (-90.0 20.0)
  end
  begin
     id 11 
     name lowerback
     direction 0.0310826 0.968686 -0.246334   
     length 2.00021   
     axis 0 0 0   XYZ
    dof rx ry rz
    limits (-20.0 45.0)
           (-30.0 30.0)
           (-30.0 30.0)
  end
  begin
     id 12 
     name upperback
     direction -0.0152834 0.999474 -0.0286152   
     length 2.03728   
     axis 0 0 0   XYZ
    dof rx ry rz
    limits (-20.0 45.0)
           (-30.0 30.0)
           (-30.0 30.0)
  end
  begin
     id 13 
     name thorax
     direction -0.0323701 0.996236 0.0804149   
     length 2.16   
     axis 0 0 0   XYZ
    dof rx ry rz
    limits (-20.0 45.0)
           (-30.0 30.0)
           (-30.0 30.0)
  end
  begin
     id 14 
     name lowerneck
     direction 0.0307935 0.982251 0.185027   
     length 1.43558   
     axis 0 0 0   XYZ
    dof rx ry rz
    limits (-20.0 45.0)
           (-30.0 30.0)
           (-30.0 30.0)
  end
  begin
     id 15 
     name upperneck
     direction -0.0927153 0.994775 0.0427454   
     length 1.44603   
     axis 0 0 0   XYZ
    dof rx ry rz
    limits (-20.0 45.0)
           (-30.0 30.0)
           (-30.0 30.0)
  end
  begin
     id 16
     name head
     direction -0.0341265 0.999406 -0.00472033  
     length 1.45931  
     axis 0 0 0   XYZ
    dof rx ry rz
    limits (-20.0 45.0)
           (-30.0 30.0)
           (-30.0 30.0)
  end
  begin
     id 17 
     name lclavicle
     direction 0.820755 0.555306 -0.134151  
     length 2.66075  
     axis 0 0 0   XYZ
    dof ry rz
    limits (-20.0 10.0)
           (0.0 20.0)
  end
  begin
     id 18 
     name lhumerus
     direction 1 -4.48971e-011 5.24853e-027   
     length 5.0546   
     axis -180 -30 -90   XYZ
    dof rx ry rz
    limits (-60.0 90.0)
           (-90.0 90.0)
           (-90.0 90.0)
  end
  begin
     id 19
     name lradius
     direction 1 -4.48971e-011 2.76575e-028   
     length 3.39013   
     axis -180 -30 -90   XYZ
    dof rx
    limits (-10.0 170.0)
  end
  begin
     id 20
     name lwrist
     direction 1 -4.48939e-011 -2.27826e-027   
     length 1.69507   
     axis 2.17013e-015 90 90   XYZ
    dof ry
    limits (-180.0 0.0)
 end
  begin
     id 21 
     name lhand
     direction 1 -4.49009e-011 -4.55652e-027   
     length 0.572425   
     axis 2.90745e-015 90 90   XYZ
    dof rx rz
    limits (-90.0 90.0)
           (-45.0 45.0)
  end
  begin
     id 22 
     name lfingers
     direction 1 -4.48955e-011 -9.11303e-027   
     length 0.461504   
     axis 5.81489e-015 90 90   XYZ
    dof rx
    limits (0.0 90.0)
  end
  begin
     id 23
     name lthumb
     direction 0.707107 -6.34929e-011 0.707107   
     length 0.66263   
     axis -90 45 2.85299e-015   XYZ
    dof rx rz
    limits (-45.0 45.0)
           (-45.0 45.0)
  end
  begin
     id 24 
     name rclavicle
     direction -0.754477 0.632921 -0.173712   
     length 2.73081  
     axis 0 0 0   XYZ 
    dof ry rz
    limits (-10.0 20.0)
           (-20.0 0.0)
  end
  begin
     id 25 
     name rhumerus
     direction -1 -4.48969e-011 5.1496e-027  
     length 5.0701   
     axis -180 30 90   XYZ
    dof rx ry rz
    limits (-90.0 60.0)
           (-90.0 90.0)
           (-90.0 90.0)
  end
  begin
     id 26 
     name rradius
     direction -1 -4.48967e-011 -7.15624e-028   
     length 3.14957   
     axis -180 30 90   XYZ
    dof rx
    limits (-10.0 170.0)
  end
  begin
     id 27 
     name rwrist
     direction -1 -4.48938e-011 -2.27826e-027   
     length 1.57479   
     axis 2.17013e-015 -90 -90   XYZ
    dof ry
    limits (-180.0 0.0)
  end
  begin
     id 28
     name rhand
     direction -1 -4.49008e-011 -4.55652e-027   
     length 0.718191   
     axis 2.90745e-015 -90 -90   XYZ
    dof rx rz
    limits (-90.0 90.0)
           (-45.0 45.0)
  end
  begin
     id 29
     name rfingers
     direction -1 -4.48953e-011 -9.11303e-027   
     length 0.579024   
     axis 5.81489e-015 -90 -90   XYZ
    dof rx
    limits (0.0 90.0)
  end
  begin
     id 30
     name rthumb
     direction -0.707107 -6.34937e-011 0.707107   
     length 0.831366   
     axis -90 -45 -2.85299e-015   XYZ
    dof rx rz
    limits (-45.0 45.0)
           (-45.0 45.0)
  end
:hierarchy
  begin
    root lhipjoint rhipjoint lowerback
    lhipjoint lfemur
    lfemur ltibia
    ltibia lfoot
    lfoot ltoes
    rhipjoint rfemur
    rfemur rtibia
    rtibia rfoot
    rfoot rtoes
    lowerback upperback
    upperback thorax
    thorax lowerneck lclavicle rclavicle
    lowerneck upperneck
    upperneck head
    lclavicle lhumerus
    lhumerus lradius
    lradius lwrist
    lwrist lhand lthumb
    lhand lfingers
    rclavicle rhumerus
    rhumerus rradius
    rradius rwrist
    rwrist rhand rthumb
    rhand rfingers
  end

#!OML:ASF H:\Male1\Project 1\Capture day 1\Session 1\Male1.ASF
:FULLY-SPECIFIED
:DEGREES
60
root 19.6239 15.5569 -0.251248 -88.8603 -87.0747 90.334
lowerback 15.3372 2.05237 0.130417
upperback 8.32404 2.15233 -3.07864
thorax 0.356255 0.938182 -3.61672
lowerneck -8.85407 2.69998 7.83868
upperneck 21.0546 2.14153 -0.737376
head 8.09467 1.41737 -1.36974
rclavicle 9.34288e-015 1.66979e-014
rhumerus -36.9133 15.1307 -86.3123
rradius 52.3093
rwrist -27.1874
rhand -17.0011 -2.04602
rfingers 7.12502
rthumb 9.2343 -31.8238
lclavicle 9.34288e-015 1.66979e-014
lhumerus -27.8725 -8.49329 80.968
lradius 32.4959
lwrist 1.83601
lhand -16.7876 9.37848
lfingers 7.12502
lthumb 9.44031 39.1471
rfemur 16.5828 9.0054 26.0296
rtibia -9.54166e-015
rfoot -20.7627 -32.2062
rtoes -9.82224
lfemur -60.1081 -2.08998 -26.2635
ltibia 86.4295
lfoot -26.3546 7.45323
ltoes -20.057
61
root 19.4861 15.589 -0.21891 -91.6316 -86.8715 93.3093
lowerback 15.4048 2.18949 -0.258584
upperback 8.35411 2.26432 -3.33608
thorax 0.355487 0.982528 -3.68687
lowerneck -8.94892 2.68312 7.77662
upperneck 21.1061 2.06681 -0.500998
head 8.12388 1.39956 -1.28725
rclavicle -2.52457e-014 -2.78299e-015
rhumerus -36.7855 15.199 -86.3745
rradius 52.2396
rwrist -27.1634
rhand -16.7964 -1.61927
rfingers 7.12502
rthumb 9.43182 -31.3882
lclavicle -2.52457e-014 -2.78299e-015
lhumerus -27.4713 -8.6248 80.5582
lradius 32.5932
lwrist 2.02997
lhand -17.0958 9.64372
lfingers 7.12502
lthumb 9.14286 39.4255
rfemur 16.8467 9.12523 25.7116
rtibia 9.54166e-015
rfoot -19.5565 -32.6235
rtoes -11.2392
lfemur -59.5123 -1.67071 -26.6441
ltibia 86.4172
lfoot -26.7743 7.03727
ltoes -19.707
62
root 19.3459 15.6302 -0.185424 -93.9831 -86.6841 95.8722
lowerback 15.4362 2.30733 -0.660116
upperback 8.37133 2.35117 -3.57067
thorax 0.356718 1.01371 -3.72143
lowerneck -9.01775 2.68088 7.72439
upperneck 21.1748 2.01596 -0.288542
head 8.1557 1.39154 -1.21232
rclavicle 2.16675e-014 -9.54166e-015
rhumerus -36.5884 15.2337 -86.4022
rradius 51.9891
rwrist -27.1544
rhand -16.5489 -1.08284
rfingers 7.12502
rthumb 9.67062 -30.8408
lclavicle 2.16675e-014 -9.54166e-015
lhumerus -27.1058 -8.58062 80.1676
lradius 32.6641
lwrist 2.19399
lhand -17.434 10.1029
lfingers 7.12502
lthumb 8.8166 39.8988
rfemur 17.0872 9.24648 25.367
rtibia 3.49861e-014
rfoot -18.0976 -32.9606
rtoes -12.534
lfemur -58.8499 -1.23342 -27.0237
ltibia 86.2922
lfoot -27.0931 6.66741
ltoes -19.3677
63
root 19.2035 15.6829 -0.150677 -96.1712 -86.5444 98.2894
lowerback 15.4161 2.4061 -1.04599
upperback 8.37331 2.41914 -3.77034
thorax 0.366398 1.036 -3.72365
lowerneck -9.05356 2.69771 7.70347
upperneck 21.2577 1.99572 -0.117541
head 8.18858 1.39643 -1.15369
rclavicle -3.37934e-014 1.59028e-015
rhumerus -36.3051 15.1973 -86.3832
rradius 51.4979
rwrist -27.2391
rhand -16.3054 -0.436591
rfingers 7.12502
rthumb 9.90552 -30.1836
lclavicle -3.37934e-014 1.59028e-015
lhumerus -26.7638 -8.38317 79.8207
lradius 32.6903
lwrist 2.30413
lhand -17.8834 10.4099
lfingers 7.12502
lthumb 8.38282 40.2236
rfemur 17.2863 9.37741 25.0181
rtibia 5.725e-014
rfoot -16.3829 -33.1635
rtoes -13.4626
lfemur -58.1192 -0.776582 -27.3684
ltibia 86.0129
lfoot -27.3323 6.34633
ltoes -19.0633
64
root 19.0583 15.7521 -0.114257 -98.5329 -86.4667 100.91
lowerback 15.3211 2.49536 -1.38173
upperback 8.36414 2.48744 -3.93889
thorax 0.404114 1.06056 -3.71855
lowerneck -9.07732 2.72759 7.74922
upperneck 21.3604 1.99197 0.00173793
head 8.22827 1.40955 -1.12181
rclavicle -3.4191e-014 5.64548e-014
rhumerus -35.9233 15.0158 -86.313
rradius 50.7412
rwrist -27.4439
rhand -16.0955 0.277003
rfingers 7.12502
rthumb 10.108 -29.4602
lclavicle -3.4191e-014 5.64548e-014
lhumerus -26.4205 -8.10376 79.5297
lradius 32.6581
lwrist 2.35836
lhand -18.3438 10.7065
lfingers 7.12502
lthumb 7.93849 40.5374
rfemur 14.9834 9.53598 24.7617
rtibia 4.65237
rfoot -16.9775 -32.7126
rtoes -13.899
lfemur -57.2776 -0.273795 -27.6571
ltibia 85.4983
lfoot -27.5434 6.05439
ltoes -18.8814
65
root 18.9108 15.8379 -0.0756466 -101.253 -86.4508 103.936
lowerback 15.1382 2.56867 -1.66568
upperback 8.33614 2.5504 -4.06797
thorax 0.467812 1.08485 -3.69667
lowerneck -9.08728 2.77258 7.84208
upperneck 21.4902 2.01049 0.0704698
head 8.2768 1.4323 -1.11251
rclavicle -3.97569e-016 3.4191e-014
rhumerus -35.4507 14.6979 -86.1878
rradius 49.7372
rwrist -27.732
rhand -15.9516 0.946452
rfingers 7.12502
rthumb 10.2469 -28.784
lclavicle -3.97569e-016 3.4191e-014
lhumerus -26.0835 -7.72961 79.3126
lradius 32.5626
lwrist 2.34548
lhand -18.8163 10.9275
lfingers 7.12502
lthumb 7.48245 40.7752
rfemur 13.4089 9.72027 24.4023
rtibia 7.70781
rfoot -16.3371 -32.2141
rtoes -14.2604
lfemur -56.3203 0.244213 -27.8737
ltibia 84.7025
lfoot -27.7828 5.78993
ltoes -18.7962
66
root 18.7625 15.9389 -0.0345701 -104.887 -86.4878 107.892
lowerback 14.9212 2.63773 -1.89166
upperback 8.28965 2.62117 -4.15393
thorax 0.53046 1.11514 -3.66157
lowerneck -9.08729 2.82103 7.96698
upperneck 21.6415 2.03714 0.093643
head 8.33211 1.45732 -1.12304
rclavicle -6.36111e-015 -2.14687e-014
rhumerus -34.9169 14.2319 -86.0078
rradius 48.5609
rwrist -28.0293
rhand -15.9104 1.3943
rfingers 7.12502
rthumb 10.2866 -28.3341
lclavicle -6.36111e-015 -2.14687e-014
lhumerus -25.7645 -7.29709 79.1801
lradius 32.424
lwrist 2.29091
lhand -19.2523 11.0198
lfingers 7.12502
lthumb 7.06163 40.882
rfemur 11.6997 9.94701 23.9727
rtibia 10.8185
rfoot -15.1194 -31.6358
rtoes -14.9674
lfemur -55.2023 0.770508 -28.0065
ltibia 83.6108
lfoot -28.0902 5.57482
ltoes -18.7493
